<svg width="32" height="32" viewBox="0 0 32 32" fill="currentColor" stroke="currentColor" xmlns="http://www.w3.org/2000/svg">
    <path d="M31.2033 5.64328L31.2034 5.6433C31.5989 6.03878 31.5989 6.67997 31.2034 7.07545L31.2033 7.07547L22.6324 15.6464L22.2789 16L22.6324 16.3536L31.2033 24.9246L31.2034 24.9246C31.5989 25.32 31.5989 25.9612 31.2033 26.3567L26.3567 31.2033C25.9612 31.5989 25.32 31.5989 24.9246 31.2034L24.9246 31.2033L16.3536 22.6324L16 22.2789L15.6464 22.6324L7.07547 31.2033L7.07545 31.2034C6.67997 31.5989 6.03878 31.5989 5.6433 31.2034L5.64328 31.2033L0.79663 26.3568C0.401107 25.9612 0.40115 25.32 0.7966 24.9246L0.796615 24.9246L9.36759 16.3536L9.72115 16L9.36759 15.6464L0.796615 7.07547C0.401128 6.67998 0.401128 6.03877 0.796614 5.64328L5.64328 0.796615C6.03877 0.401128 6.67998 0.401128 7.07547 0.796614L15.6464 9.36759L16 9.72115L16.3536 9.36759L24.9246 0.796615L24.9246 0.7966C25.32 0.40115 25.9612 0.401107 26.3568 0.79663L31.2033 5.64328Z" />
</svg>
